<svg width="4667" height="1112" viewBox="0 0 4667 1112" fill="none" xmlns="http://www.w3.org/2000/svg">
<path fill-rule="evenodd" clip-rule="evenodd" d="M620 200H752C862.457 200 952 289.543 952 400V532C952 536.418 948.418 540 944 540H726C721.582 540 718 536.418 718 532V443C718 438.582 714.418 435 710 435H620C615.582 435 612 431.418 612 427V208C612 203.582 615.582 200 620 200ZM572 912H440C329.543 912 240 822.457 240 712V580C240 575.582 243.582 572 248 572H466C470.418 572 474 575.582 474 580V669C474 673.418 477.582 677 482 677H572C576.418 677 580 680.582 580 685V904C580 908.418 576.418 912 572 912ZM710 678C714.418 678 718 674.418 718 670V580C718 575.582 721.582 572 726 572H944C948.418 572 952 575.582 952 580V712C952 822.457 862.457 912 752 912H620C615.582 912 612 908.418 612 904V686C612 681.582 615.582 678 620 678H710ZM240 400C240 289.543 329.543 200 440 200H572C576.418 200 580 203.582 580 208V427C580 431.418 576.418 435 572 435H483C478.582 435 475 438.582 475 443V532C475 536.418 471.418 540 467 540H248C243.582 540 240 536.418 240 532V400Z" fill="url(#paint0_linear_4820_16177)"/>
<path d="M1356.5 719.5V441.5H1260.5V369.5H1533.5V441.5H1437V719.5H1356.5ZM1719.83 719.5V369.5H1933.83V434.5H1800.83V514H1933.83V577.5H1800.83V654.5H1933.83V719.5H1719.83ZM2147.66 719.5V369.5H2230.66L2352.16 596V369.5H2429.66V719.5H2346.66L2225.16 493V719.5H2147.66ZM2647.76 719.5V369.5H2779.76C2834.1 369.5 2877.43 386.333 2909.76 420C2942.1 453.667 2958.26 495.167 2958.26 544.5C2958.26 593.833 2942.1 635.333 2909.76 669C2877.76 702.667 2834.43 719.5 2779.76 719.5H2647.76ZM2728.76 651.5H2772.26C2804.93 651.5 2830.1 641.167 2847.76 620.5C2865.76 599.5 2874.76 574.167 2874.76 544.5C2874.76 514.833 2865.76 489.667 2847.76 469C2830.1 448 2804.93 437.5 2772.26 437.5H2728.76V651.5ZM3459.15 676C3425.15 711.667 3379.82 729.5 3323.15 729.5C3266.48 729.5 3221.15 711.667 3187.15 676C3153.15 640 3136.15 596.167 3136.15 544.5C3136.15 492.833 3153.15 449.167 3187.15 413.5C3221.15 377.5 3266.48 359.5 3323.15 359.5C3379.82 359.5 3425.15 377.5 3459.15 413.5C3493.15 449.167 3510.15 492.833 3510.15 544.5C3510.15 596.167 3493.15 640 3459.15 676ZM3323.15 657C3355.15 657 3380.15 646.333 3398.15 625C3416.48 603.333 3425.65 576.5 3425.65 544.5C3425.65 512.5 3416.48 485.833 3398.15 464.5C3380.15 442.833 3355.15 432 3323.15 432C3290.82 432 3265.48 442.833 3247.15 464.5C3229.15 485.833 3220.32 512.5 3220.65 544.5C3220.32 576.5 3229.15 603.333 3247.15 625C3265.48 646.333 3290.82 657 3323.15 657ZM3707.04 719.5V369.5H3921.04V434.5H3788.04V514H3921.04V577.5H3788.04V654.5H3921.04V719.5H3707.04ZM4409.37 496C4409.37 521.333 4403.54 544 4391.87 564C4380.2 583.667 4364.2 598.5 4343.87 608.5L4405.37 719.5H4313.37L4258.37 622.5H4215.87V719.5H4134.87V369.5H4283.87C4320.2 369.5 4350.2 381.5 4373.87 405.5C4397.54 429.167 4409.37 459.333 4409.37 496ZM4215.87 435.5V556.5H4271.37C4287.7 556.5 4301.04 550.833 4311.37 539.5C4322.04 528.167 4327.37 513.667 4327.37 496C4327.37 478.333 4322.04 463.833 4311.37 452.5C4301.04 441.167 4287.7 435.5 4271.37 435.5H4215.87Z" fill="#1C2024"/>
<defs>
<linearGradient id="paint0_linear_4820_16177" x1="596" y1="200" x2="596" y2="912" gradientUnits="userSpaceOnUse">
<stop stop-color="#96E077"/>
<stop offset="1" stop-color="#31ABC1"/>
</linearGradient>
</defs>
</svg>
